<svg width="36" height="39" viewBox="0 0 36 39" fill="none" xmlns="http://www.w3.org/2000/svg">
<g filter="url(#filter0_d_121_83)">
<path d="M6.5625 28.4376H8.16667L24.3177 12.2865L22.7135 10.6824L6.5625 26.8334V28.4376ZM28.9479 10.7188L24.2812 6.05216L25.8125 4.52091C26.2257 4.10772 26.7361 3.90112 27.3437 3.90112C27.9514 3.90112 28.4618 4.10772 28.875 4.52091L30.4792 6.12508C30.8924 6.53828 31.099 7.04869 31.099 7.65633C31.099 8.26397 30.8924 8.77439 30.4792 9.18758L28.9479 10.7188ZM27.4167 12.2501L9.04167 30.6251H4.375V25.9584L22.75 7.58341L27.4167 12.2501ZM23.5156 11.4845L22.7135 10.6824L24.3177 12.2865L23.5156 11.4845Z" fill="#4200FF"/>
</g>
<defs>
<filter id="filter0_d_121_83" x="-4" y="0" width="43" height="43" filterUnits="userSpaceOnUse" color-interpolation-filters="sRGB">
<feFlood flood-opacity="0" result="BackgroundImageFix"/>
<feColorMatrix in="SourceAlpha" type="matrix" values="0 0 0 0 0 0 0 0 0 0 0 0 0 0 0 0 0 0 127 0" result="hardAlpha"/>
<feOffset dy="4"/>
<feGaussianBlur stdDeviation="2"/>
<feComposite in2="hardAlpha" operator="out"/>
<feColorMatrix type="matrix" values="0 0 0 0 0 0 0 0 0 0 0 0 0 0 0 0 0 0 0.25 0"/>
<feBlend mode="normal" in2="BackgroundImageFix" result="effect1_dropShadow_121_83"/>
<feBlend mode="normal" in="SourceGraphic" in2="effect1_dropShadow_121_83" result="shape"/>
</filter>
</defs>
</svg>
